<?xml version="1.0" encoding="UTF-8"?>
<svg width="71px" height="18px" viewBox="0 0 71 18" version="1.1" xmlns="http://www.w3.org/2000/svg" xmlns:xlink="http://www.w3.org/1999/xlink">
    <!-- Generator: Sketch 64 (93537) - https://sketch.com -->
    <title>Fill 1@1x</title>
    <desc>Created with Sketch.</desc>
    <g id="Page-1" stroke="none" stroke-width="1" fill="none" fill-rule="evenodd">
        <g id="LinkedIn-PMS300U-S" fill="#000000">
            <path d="M47.718,11.025 C47.718,9.667 46.678,8.816 45.583,8.816 C44.446,8.816 43.484,9.636 43.484,11.008 C43.484,12.437 44.488,13.235 45.583,13.235 C46.657,13.235 47.718,12.365 47.718,11.025 Z M47.535,2.661 L50.242,2.661 L50.242,15.341 L47.759,15.341 L47.759,14.219 L47.725,14.219 C47.397,14.792 46.47,15.583 44.91,15.583 C43.021,15.583 40.818,14.167 40.818,11.008 C40.818,8.187 42.729,6.503 44.876,6.503 C46.126,6.503 47.022,7.115 47.501,7.659 L47.535,7.659 L47.535,2.661 Z M37.486,10.059 C37.486,9.146 36.922,8.419 35.743,8.419 C34.626,8.419 33.898,9.146 33.837,10.059 L37.486,10.059 Z M40.088,11.146 C40.088,11.437 40.082,11.716 40.071,11.82 L33.837,11.82 C33.837,11.82 33.838,11.919 33.883,12.084 C34.081,12.787 34.832,13.442 35.97,13.442 C37.003,13.442 37.555,12.968 37.876,12.576 L39.762,13.787 C39.059,14.75 37.772,15.617 35.899,15.617 C33.412,15.617 31.215,14.062 31.215,11.077 C31.215,8.109 33.424,6.468 35.814,6.468 C38.205,6.468 40.088,8.109 40.088,11.146 Z M68.242,10.024 C68.242,7.398 66.611,6.503 65.101,6.503 C63.704,6.503 62.79,7.406 62.529,7.935 L62.494,7.935 L62.494,6.744 L59.891,6.744 L59.891,15.341 L62.597,15.341 L62.597,10.68 C62.597,9.437 63.385,8.833 64.188,8.833 C64.948,8.833 65.536,9.261 65.536,10.646 L65.536,15.341 L68.242,15.341 L68.242,10.024 Z M58.473,3.993 C58.473,3.096 57.775,2.439 56.913,2.439 C56.051,2.439 55.353,3.096 55.353,3.993 C55.353,4.891 56.051,5.547 56.913,5.547 C57.775,5.547 58.473,4.891 58.473,3.993 Z M55.56,15.334 L58.266,15.334 L58.266,6.737 L55.56,6.737 L55.56,15.334 Z M70.901,1.329 L70.901,16.671 C70.901,17.405 70.306,18 69.572,18 L54.23,18 C53.496,18 52.901,17.405 52.901,16.671 L52.901,1.329 C52.901,0.595 53.496,0 54.23,0 L69.572,0 C70.306,0 70.901,0.595 70.901,1.329 Z M10.367,2.439 C9.506,2.439 8.807,3.096 8.807,3.993 C8.807,4.891 9.506,5.547 10.367,5.547 C11.229,5.547 11.928,4.891 11.928,3.993 C11.928,3.096 11.229,2.439 10.367,2.439 Z M9.014,15.335 L11.721,15.335 L11.721,6.738 L9.014,6.738 L9.014,15.335 Z M18.38,6.503 C16.984,6.503 16.069,7.406 15.807,7.935 L15.773,7.935 L15.773,6.744 L13.17,6.744 L13.17,15.341 L15.876,15.341 L15.876,10.68 C15.876,9.437 16.664,8.833 17.467,8.833 C18.227,8.833 18.816,9.261 18.816,10.646 L18.816,15.341 L21.523,15.341 L21.523,10.024 C21.523,7.398 19.89,6.503 18.38,6.503 Z M2.867,2.661 L0,2.661 L0,15.341 L7.793,15.341 L7.793,12.769 L2.867,12.769 L2.867,2.661 Z M28.344,10.628 L31.798,15.341 L28.434,15.341 L25.62,11.215 L25.568,11.215 L25.568,15.341 L22.861,15.341 L22.861,2.661 L25.568,2.661 L25.568,10.231 L25.62,10.231 L28.365,6.744 L31.659,6.744 L28.344,10.628 L28.344,10.628 Z" id="Fill-1"></path>
        </g>
    </g>
</svg>