<?xml version="1.0" encoding="UTF-8"?>
<svg width="440px" height="166px" viewBox="0 0 440 166" version="1.1" xmlns="http://www.w3.org/2000/svg" xmlns:xlink="http://www.w3.org/1999/xlink">
    <!-- Generator: Sketch 64 (93537) - https://sketch.com -->
    <title>Artboard@1x</title>
    <desc>Created with Sketch.</desc>
    <defs>
        <linearGradient x1="50%" y1="0%" x2="50%" y2="100%" id="linearGradient-1">
            <stop stop-color="#69EBEB" stop-opacity="0.9" offset="0%"></stop>
            <stop stop-color="#38D2D3" stop-opacity="0.9" offset="100%"></stop>
        </linearGradient>
        <linearGradient x1="50%" y1="0%" x2="50%" y2="100%" id="linearGradient-2">
            <stop stop-color="#E5F9A3" stop-opacity="0.9" offset="0%"></stop>
            <stop stop-color="#C7F16A" stop-opacity="0.9" offset="100%"></stop>
        </linearGradient>
        <linearGradient x1="49.999919%" y1="80.0866168%" x2="49.999919%" y2="21.987517%" id="linearGradient-3">
            <stop stop-color="#142837" offset="0%"></stop>
            <stop stop-color="#0A2D46" offset="55.0147804%"></stop>
            <stop stop-color="#0A2D46" offset="100%"></stop>
        </linearGradient>
        <path d="M21.4368808,128.0141 L21.4368808,163.24957 L9.6676129,163.24957 L9.6676129,128.0141 L0,128.0141 L0,118.066671 L31.1044937,118.066671 L31.1044937,128.0141 L21.4368808,128.0141 Z M48.0978754,138.26115 L50.3196249,138.26115 C52.6414649,138.26115 54.4228499,137.78176 55.6638333,136.822967 C56.9048167,135.864174 57.5252991,134.48593 57.5252991,132.688193 C57.5252991,130.890456 56.9048167,129.512211 55.6638333,128.553418 C54.4228499,127.594625 52.6414649,127.115236 50.3196249,127.115236 L48.0978754,127.115236 L48.0978754,138.26115 Z M73.9782552,163.24957 L59.3267177,163.24957 L48.0978754,145.871532 L48.0978754,163.24957 L36.3286075,163.24957 L36.3286075,118.066671 L54.6430294,118.066671 C57.165028,118.066671 59.3667398,118.436201 61.2482308,119.17527 C63.1297218,119.91434 64.6809278,120.923055 65.9018954,122.201446 C67.122863,123.479837 68.0435788,124.957954 68.6640705,126.635842 C69.2845622,128.31373 69.5948034,130.11144 69.5948034,132.029026 C69.5948034,135.464701 68.7641576,138.251152 67.1028411,140.388461 C65.4415246,142.525771 62.9896183,143.973926 59.7470487,144.732971 L73.9782552,163.24957 Z M103.52152,146.470775 L98.2373584,131.429783 L92.9531973,146.470775 L103.52152,146.470775 Z M106.643978,155.399491 L89.8307385,155.399491 L87.1286107,163.24957 L74.5787281,163.24957 L91.8122989,118.066671 L104.662418,118.066671 L121.895989,163.24957 L109.346106,163.24957 L106.643978,155.399491 Z M157.984407,133.167587 C155.26225,129.851761 151.899636,128.193873 147.896463,128.193873 C146.135067,128.193873 144.503799,128.513466 143.002609,129.152661 C141.50142,129.791853 140.210416,130.66075 139.12956,131.759367 C138.048703,132.857984 137.198042,134.166317 136.57755,135.684406 C135.957058,137.202495 135.646817,138.840409 135.646817,140.598196 C135.646817,142.395933 135.957058,144.053821 136.57755,145.57191 C137.198042,147.09 138.058711,148.40832 139.159583,149.526912 C140.260456,150.645504 141.551459,151.524385 143.032633,152.16358 C144.513807,152.802775 146.115052,153.122368 147.836416,153.122368 C151.599398,153.122368 154.982028,151.524404 157.984407,148.328427 L157.984407,162.230857 L156.783461,162.650327 C154.982034,163.289522 153.300727,163.758924 151.739489,164.058547 C150.178252,164.35817 148.637054,164.507979 147.115849,164.507979 C143.993374,164.507979 141.001048,163.91873 138.138779,162.740213 C135.276511,161.561697 132.75455,159.903809 130.572821,157.766499 C128.391093,155.62919 126.639731,153.092421 125.318684,150.156117 C123.997637,147.219813 123.337124,144.013897 123.337124,140.538272 C123.337124,137.062647 123.987629,133.876705 125.28866,130.980351 C126.589691,128.083997 128.331045,125.587177 130.512774,123.489818 C132.694503,121.392458 135.226472,119.754544 138.108756,118.576028 C140.99104,117.397511 144.01339,116.808262 147.175896,116.808262 C148.977323,116.808262 150.748701,116.99802 152.490081,117.377542 C154.23146,117.757064 156.062884,118.346314 157.984407,119.145308 L157.984407,133.167587 Z M191.190556,128.0141 L177.199538,128.0141 L177.199538,135.564558 L190.409941,135.564558 L190.409941,145.511986 L177.199538,145.511986 L177.199538,153.302141 L191.190556,153.302141 L191.190556,163.24957 L165.43027,163.24957 L165.43027,118.066671 L191.190556,118.066671 L191.190556,128.0141 Z M211.426491,138.26115 L213.64824,138.26115 C215.97008,138.26115 217.751465,137.78176 218.992449,136.822967 C220.233432,135.864174 220.853915,134.48593 220.853915,132.688193 C220.853915,130.890456 220.233432,129.512211 218.992449,128.553418 C217.751465,127.594625 215.97008,127.115236 213.64824,127.115236 L211.426491,127.115236 L211.426491,138.26115 Z M237.306871,163.24957 L222.655333,163.24957 L211.426491,145.871532 L211.426491,163.24957 L199.657223,163.24957 L199.657223,118.066671 L217.971645,118.066671 C220.493644,118.066671 222.695355,118.436201 224.576846,119.17527 C226.458337,119.91434 228.009543,120.923055 229.230511,122.201446 C230.451478,123.479837 231.372194,124.957954 231.992686,126.635842 C232.613178,128.31373 232.923419,130.11144 232.923419,132.029026 C232.923419,135.464701 232.092773,138.251152 230.431457,140.388461 C228.77014,142.525771 226.318234,143.973926 223.075664,144.732971 L237.306871,163.24957 Z M242.911206,163.24957 L242.911206,118.072289 L249.713437,118.072289 C252.743182,118.072289 255.157168,118.306366 256.955468,118.774527 C258.773315,119.242687 260.307711,120.032697 261.558703,121.144578 C262.829241,122.295473 263.835883,123.729194 264.578659,125.445783 C265.340982,127.181879 265.722137,128.937455 265.722137,130.712565 C265.722137,133.950676 264.480938,136.691326 261.998502,138.934596 C264.402751,139.753877 266.298756,141.187597 267.686575,143.2358 C269.09394,145.264497 269.797612,147.624771 269.797612,150.316695 C269.797612,153.847407 268.54664,156.831887 266.044657,159.270224 C264.539558,160.772239 262.84879,161.815832 260.972303,162.401033 C258.919896,162.966727 256.349538,163.24957 253.261153,163.24957 L242.911206,163.24957 Z M249.742757,137.471601 L251.883115,137.471601 C254.424191,137.471601 256.28599,136.910792 257.468568,135.789157 C258.651145,134.667522 259.242425,133.014354 259.242425,130.829604 C259.242425,128.703374 258.636486,127.08922 257.424588,125.987091 C256.21269,124.884963 254.45351,124.333907 252.146994,124.333907 L249.742757,124.333907 L249.742757,137.471601 Z M249.742757,156.841652 L253.964832,156.841652 C257.053217,156.841652 259.320605,156.236954 260.767064,155.027539 C262.291709,153.72059 263.054021,152.062546 263.054021,150.053356 C263.054021,148.102687 262.321029,146.464149 260.855023,145.137694 C259.428111,143.830745 256.8773,143.177281 253.202513,143.177281 L249.742757,143.177281 L249.742757,156.841652 Z M303.39829,124.480207 L285.249233,124.480207 L285.249233,135.335628 L302.870531,135.335628 L302.870531,141.743546 L285.249233,141.743546 L285.249233,156.841652 L303.39829,156.841652 L303.39829,163.24957 L278.417682,163.24957 L278.417682,118.072289 L303.39829,118.072289 L303.39829,124.480207 Z M312.370199,163.24957 L312.370199,115 L345.384478,149.468158 L345.384478,118.072289 L352.216029,118.072289 L352.216029,166 L319.201751,131.619621 L319.201751,163.24957 L312.370199,163.24957 Z M396.928974,120.500861 L396.928974,128.576592 C392.980532,125.279961 388.895325,123.63167 384.673229,123.63167 C380.021105,123.63167 376.102042,125.299467 372.915924,128.635112 C369.710258,131.95125 368.10745,136.008582 368.10745,140.807229 C368.10745,145.547356 369.710258,149.546168 372.915924,152.803787 C376.121589,156.061405 380.050425,157.690189 384.702549,157.690189 C387.106798,157.690189 389.149402,157.300061 390.830421,156.519793 C391.768665,156.12966 392.741101,155.602987 393.747758,154.939759 C394.754415,154.276531 395.81481,153.476769 396.928974,152.540448 L396.928974,160.762478 C393.019626,162.966735 388.914872,164.068847 384.614589,164.068847 C378.144618,164.068847 372.622747,161.815857 368.04881,157.309811 C363.494419,152.764751 361.217258,147.283451 361.217258,140.865749 C361.217258,135.111274 363.123037,129.98109 366.934651,125.475043 C371.625869,119.954648 377.69504,117.194492 385.142348,117.194492 C389.20807,117.194492 393.136906,118.296604 396.928974,120.500861 Z M413.641353,135.745267 L433.168449,135.745267 L433.168449,118.072289 L440,118.072289 L440,163.24957 L433.168449,163.24957 L433.168449,142.153184 L413.641353,142.153184 L413.641353,163.24957 L406.809801,163.24957 L406.809801,118.072289 L413.641353,118.072289 L413.641353,135.745267 Z" id="path-4"></path>
    </defs>
    <g id="Artboard" stroke="none" stroke-width="1" fill="none" fill-rule="evenodd">
        <g id="lines" transform="translate(109.000000, 40.000000)" stroke="#EDEDED" stroke-linecap="square" stroke-opacity="0.3" stroke-width="2">
            <line x1="8.77770079e-15" y1="40.5" x2="230" y2="40.5" id="Line-2"></line>
            <line x1="8.77770079e-15" y1="20.5" x2="230" y2="20.5" id="Line-2"></line>
            <line x1="8.77770079e-15" y1="0.5" x2="230" y2="0.5" id="Line-2"></line>
        </g>
        <line x1="109" y1="80.5" x2="339" y2="80.5" id="Line-2" stroke-opacity="0.3" stroke="#EDEDED" stroke-width="2" stroke-linecap="square"></line>
        <line x1="109" y1="60.5" x2="339" y2="60.5" id="Line-2" stroke-opacity="0.3" stroke="#EDEDED" stroke-width="2" stroke-linecap="square"></line>
        <line x1="109" y1="40.5" x2="339" y2="40.5" id="Line-2" stroke-opacity="0.3" stroke="#EDEDED" stroke-width="2" stroke-linecap="square"></line>
        <rect id="Rectangle" stroke="#38D2D3" stroke-width="2" fill-opacity="0.8" fill="url(#linearGradient-1)" transform="translate(246.000000, 65.000000) rotate(-90.000000) translate(-246.000000, -65.000000) " x="217" y="50" width="58" height="30"></rect>
        <line x1="246" y1="77.5" x2="246" y2="51.5" id="Line" stroke="#38D2D3" stroke-width="5" stroke-linecap="square" transform="translate(246.000000, 64.500000) rotate(270.000000) translate(-246.000000, -64.500000) "></line>
        <line x1="246.5" y1="104" x2="246.5" y2="97" id="Line" stroke="#38D2D3" stroke-width="4" stroke-linecap="square"></line>
        <line x1="246.5" y1="34" x2="246.5" y2="28" id="Line" stroke="#38D2D3" stroke-width="4" stroke-linecap="square"></line>
        <rect id="Rectangle" stroke="#C7F16A" stroke-width="2" fill-opacity="0.8" fill="url(#linearGradient-2)" transform="translate(199.000000, 50.000000) rotate(-90.000000) translate(-199.000000, -50.000000) " x="170" y="35" width="58" height="30"></rect>
        <line x1="199.5" y1="19" x2="199.5" y2="4" id="Line" stroke="#C7F16A" stroke-width="4" stroke-linecap="square"></line>
        <line x1="199" y1="65.5" x2="199" y2="39.5" id="Line" stroke="#C7F16A" stroke-width="5" stroke-linecap="square" transform="translate(199.000000, 52.500000) rotate(270.000000) translate(-199.000000, -52.500000) "></line>
        <line x1="199.5" y1="87" x2="199.5" y2="82" id="Line" stroke="#C7F16A" stroke-width="4" stroke-linecap="square"></line>
        <line x1="246" y1="77.5" x2="246" y2="51.5" id="Line" stroke="#38D2D3" stroke-width="5" stroke-linecap="square" transform="translate(246.000000, 64.500000) rotate(270.000000) translate(-246.000000, -64.500000) "></line>
        <line x1="246.5" y1="104" x2="246.5" y2="97" id="Line" stroke="#38D2D3" stroke-width="4" stroke-linecap="square"></line>
        <line x1="246.5" y1="34" x2="246.5" y2="26" id="Line" stroke="#38D2D3" stroke-width="4" stroke-linecap="square"></line>
        <line x1="199.5" y1="19" x2="199.5" y2="2.5" id="Line" stroke="#C7F16A" stroke-width="4" stroke-linecap="square"></line>
        <line x1="199" y1="65.5" x2="199" y2="39.5" id="Line" stroke="#C7F16A" stroke-width="5" stroke-linecap="square" transform="translate(199.000000, 52.500000) rotate(270.000000) translate(-199.000000, -52.500000) "></line>
        <line x1="199.5" y1="89.5" x2="199.5" y2="82" id="Line" stroke="#C7F16A" stroke-width="4" stroke-linecap="square"></line>
        <circle id="Oval" fill-opacity="0.75" fill="#0A2D46" transform="translate(205.500000, 48.500000) rotate(-90.000000) translate(-205.500000, -48.500000) " cx="205.5" cy="48.5" r="2.5"></circle>
        <circle id="Oval" fill-opacity="0.75" fill="#0A2D46" transform="translate(188.500000, 89.500000) rotate(-90.000000) translate(-188.500000, -89.500000) " cx="188.5" cy="89.5" r="2.5"></circle>
        <circle id="Oval" fill-opacity="0.75" fill="#0A2D46" transform="translate(240.500000, 84.500000) rotate(-90.000000) translate(-240.500000, -84.500000) " cx="240.5" cy="84.5" r="2.5"></circle>
        <circle id="Oval" fill-opacity="0.75" fill="#0A2D46" transform="translate(257.500000, 104.500000) rotate(-90.000000) translate(-257.500000, -104.500000) " cx="257.5" cy="104.5" r="2.5"></circle>
        <circle id="Oval" fill-opacity="0.75" fill="#0A2D46" transform="translate(252.500000, 85.500000) rotate(-90.000000) translate(-252.500000, -85.500000) " cx="252.5" cy="85.5" r="2.5"></circle>
        <circle id="Oval" fill-opacity="0.75" fill="#0A2D46" transform="translate(254.500000, 48.500000) rotate(-90.000000) translate(-254.500000, -48.500000) " cx="254.5" cy="48.5" r="2.5"></circle>
        <circle id="Oval" fill-opacity="0.75" fill="#0A2D46" transform="translate(193.500000, 61.500000) rotate(-90.000000) translate(-193.500000, -61.500000) " cx="193.5" cy="61.5" r="2.5"></circle>
        <circle id="Oval" fill-opacity="0.75" fill="#0A2D46" transform="translate(236.500000, 67.500000) rotate(-90.000000) translate(-236.500000, -67.500000) " cx="236.5" cy="67.5" r="2.5"></circle>
        <circle id="Oval" fill-opacity="0.75" fill="#0A2D46" transform="translate(205.500000, 14.500000) rotate(-90.000000) translate(-205.500000, -14.500000) " cx="205.5" cy="14.5" r="2.5"></circle>
        <circle id="Oval" fill-opacity="0.75" fill="#0A2D46" transform="translate(186.500000, 2.500000) rotate(-90.000000) translate(-186.500000, -2.500000) " cx="186.5" cy="2.5" r="2.5"></circle>
        <circle id="Oval" fill-opacity="0.75" fill="#0A2D46" transform="translate(243.500000, 55.500000) rotate(-90.000000) translate(-243.500000, -55.500000) " cx="243.5" cy="55.5" r="2.5"></circle>
        <circle id="Oval" fill-opacity="0.75" fill="#0A2D46" transform="translate(207.500000, 68.500000) rotate(-90.000000) translate(-207.500000, -68.500000) " cx="207.5" cy="68.5" r="2.5"></circle>
        <circle id="Oval" fill-opacity="0.75" fill="#0A2D46" transform="translate(259.500000, 26.500000) rotate(-90.000000) translate(-259.500000, -26.500000) " cx="259.5" cy="26.5" r="2.5"></circle>
        <circle id="Oval" fill-opacity="0.75" fill="#0A2D46" transform="translate(191.500000, 32.500000) rotate(-90.000000) translate(-191.500000, -32.500000) " cx="191.5" cy="32.5" r="2.5"></circle>
        <g id="TRACERBENCH" fill-rule="nonzero">
            <use fill="#002B3E" xlink:href="#path-4"></use>
            <use fill="url(#linearGradient-3)" xlink:href="#path-4"></use>
        </g>
    </g>
</svg>